<mxfile host="app.diagrams.net" modified="2022-08-26T12:46:05.802Z" agent="5.0 (Windows NT 10.0; WOW64) AppleWebKit/537.36 (KHTML, like Gecko) Chrome/102.0.5005.167 YaBrowser/22.7.3.821 Yowser/2.5 Safari/537.36" etag="tTNMSrMdfxdWreqQ8gYs" version="20.2.7" type="github">
  <diagram id="mye7cpsdecRdVJIh1ltE" name="Page-1">
    <mxGraphModel dx="3076" dy="1934" grid="1" gridSize="10" guides="1" tooltips="1" connect="1" arrows="1" fold="1" page="1" pageScale="1" pageWidth="827" pageHeight="1169" math="0" shadow="0">
      <root>
        <mxCell id="0" />
        <mxCell id="1" parent="0" />
        <mxCell id="NGLzfRE2hstAdica4r9p-4" value="" style="rounded=0;whiteSpace=wrap;html=1;fillColor=#f8cecc;strokeColor=#b85450;" vertex="1" parent="1">
          <mxGeometry x="-470" y="-440" width="1580" height="1610" as="geometry" />
        </mxCell>
        <mxCell id="NGLzfRE2hstAdica4r9p-147" value="" style="rounded=0;whiteSpace=wrap;html=1;fillColor=#dae8fc;strokeColor=#6c8ebf;" vertex="1" parent="1">
          <mxGeometry x="550" y="-440" width="190" height="1610" as="geometry" />
        </mxCell>
        <mxCell id="NGLzfRE2hstAdica4r9p-148" value="" style="rounded=0;whiteSpace=wrap;html=1;fillColor=#fff2cc;strokeColor=#d6b656;" vertex="1" parent="1">
          <mxGeometry x="740" y="-441" width="190" height="1610" as="geometry" />
        </mxCell>
        <mxCell id="NGLzfRE2hstAdica4r9p-149" value="" style="rounded=0;whiteSpace=wrap;html=1;fillColor=#d5e8d4;strokeColor=#82b366;" vertex="1" parent="1">
          <mxGeometry x="930" y="-441" width="220" height="1610" as="geometry" />
        </mxCell>
        <mxCell id="NGLzfRE2hstAdica4r9p-36" value="" style="rounded=0;whiteSpace=wrap;html=1;fillColor=#dae8fc;strokeColor=#6c8ebf;" vertex="1" parent="1">
          <mxGeometry x="-470" y="-440" width="540" height="1610" as="geometry" />
        </mxCell>
        <mxCell id="NGLzfRE2hstAdica4r9p-37" value="" style="rounded=0;whiteSpace=wrap;html=1;fillColor=#fff2cc;strokeColor=#d6b656;" vertex="1" parent="1">
          <mxGeometry x="-470" y="-440" width="360" height="1610" as="geometry" />
        </mxCell>
        <mxCell id="NGLzfRE2hstAdica4r9p-71" value="" style="rounded=0;whiteSpace=wrap;html=1;fillColor=#d5e8d4;strokeColor=#82b366;" vertex="1" parent="1">
          <mxGeometry x="-470" y="-440" width="190" height="1610" as="geometry" />
        </mxCell>
        <mxCell id="GoWqnwifKlF_Yr-xNYbi-38" style="edgeStyle=none;rounded=1;orthogonalLoop=1;jettySize=auto;html=1;exitX=0;exitY=0.5;exitDx=0;exitDy=0;entryX=1;entryY=0.5;entryDx=0;entryDy=0;" parent="1" source="GoWqnwifKlF_Yr-xNYbi-1" target="GoWqnwifKlF_Yr-xNYbi-3" edge="1">
          <mxGeometry relative="1" as="geometry">
            <mxPoint x="270" y="380" as="targetPoint" />
          </mxGeometry>
        </mxCell>
        <mxCell id="NGLzfRE2hstAdica4r9p-142" style="edgeStyle=orthogonalEdgeStyle;rounded=1;orthogonalLoop=1;jettySize=auto;html=1;entryX=0;entryY=0.5;entryDx=0;entryDy=0;" edge="1" parent="1" source="GoWqnwifKlF_Yr-xNYbi-1" target="NGLzfRE2hstAdica4r9p-141">
          <mxGeometry relative="1" as="geometry" />
        </mxCell>
        <mxCell id="GoWqnwifKlF_Yr-xNYbi-1" value="Яндекс Маршруты" style="rounded=1;whiteSpace=wrap;html=1;arcSize=22;" parent="1" vertex="1">
          <mxGeometry x="240" y="696.25" width="120" height="77.5" as="geometry" />
        </mxCell>
        <mxCell id="NGLzfRE2hstAdica4r9p-39" style="edgeStyle=orthogonalEdgeStyle;rounded=1;orthogonalLoop=1;jettySize=auto;html=1;entryX=1;entryY=0.5;entryDx=0;entryDy=0;" edge="1" parent="1" source="GoWqnwifKlF_Yr-xNYbi-3" target="NGLzfRE2hstAdica4r9p-1">
          <mxGeometry relative="1" as="geometry" />
        </mxCell>
        <mxCell id="NGLzfRE2hstAdica4r9p-40" style="edgeStyle=orthogonalEdgeStyle;rounded=1;orthogonalLoop=1;jettySize=auto;html=1;" edge="1" parent="1" source="GoWqnwifKlF_Yr-xNYbi-3" target="NGLzfRE2hstAdica4r9p-3">
          <mxGeometry relative="1" as="geometry" />
        </mxCell>
        <mxCell id="NGLzfRE2hstAdica4r9p-41" style="edgeStyle=orthogonalEdgeStyle;rounded=1;orthogonalLoop=1;jettySize=auto;html=1;entryX=1;entryY=0.5;entryDx=0;entryDy=0;" edge="1" parent="1" source="GoWqnwifKlF_Yr-xNYbi-3" target="NGLzfRE2hstAdica4r9p-2">
          <mxGeometry relative="1" as="geometry" />
        </mxCell>
        <mxCell id="GoWqnwifKlF_Yr-xNYbi-3" value="Интерфейс" style="rounded=1;whiteSpace=wrap;html=1;arcSize=22;" parent="1" vertex="1">
          <mxGeometry x="90" y="700" width="120" height="70" as="geometry" />
        </mxCell>
        <mxCell id="NGLzfRE2hstAdica4r9p-65" style="edgeStyle=orthogonalEdgeStyle;rounded=1;orthogonalLoop=1;jettySize=auto;html=1;entryX=1;entryY=0.5;entryDx=0;entryDy=0;" edge="1" parent="1" source="GoWqnwifKlF_Yr-xNYbi-45" target="NGLzfRE2hstAdica4r9p-60">
          <mxGeometry relative="1" as="geometry" />
        </mxCell>
        <mxCell id="NGLzfRE2hstAdica4r9p-66" style="edgeStyle=orthogonalEdgeStyle;rounded=1;orthogonalLoop=1;jettySize=auto;html=1;entryX=1;entryY=0.5;entryDx=0;entryDy=0;" edge="1" parent="1" source="GoWqnwifKlF_Yr-xNYbi-45" target="NGLzfRE2hstAdica4r9p-62">
          <mxGeometry relative="1" as="geometry" />
        </mxCell>
        <mxCell id="NGLzfRE2hstAdica4r9p-144" style="edgeStyle=orthogonalEdgeStyle;rounded=1;orthogonalLoop=1;jettySize=auto;html=1;entryX=1;entryY=0.5;entryDx=0;entryDy=0;" edge="1" parent="1" source="GoWqnwifKlF_Yr-xNYbi-45" target="NGLzfRE2hstAdica4r9p-143">
          <mxGeometry relative="1" as="geometry" />
        </mxCell>
        <mxCell id="GoWqnwifKlF_Yr-xNYbi-45" value="Панель выбора времени начала поездки" style="rounded=1;whiteSpace=wrap;html=1;arcSize=22;" parent="1" vertex="1">
          <mxGeometry x="-270" y="-270" width="120" height="50" as="geometry" />
        </mxCell>
        <mxCell id="NGLzfRE2hstAdica4r9p-28" style="edgeStyle=orthogonalEdgeStyle;rounded=1;orthogonalLoop=1;jettySize=auto;html=1;entryX=1;entryY=0.5;entryDx=0;entryDy=0;" edge="1" parent="1" source="NGLzfRE2hstAdica4r9p-1" target="NGLzfRE2hstAdica4r9p-9">
          <mxGeometry relative="1" as="geometry" />
        </mxCell>
        <mxCell id="NGLzfRE2hstAdica4r9p-29" style="edgeStyle=orthogonalEdgeStyle;rounded=1;orthogonalLoop=1;jettySize=auto;html=1;entryX=1;entryY=0.5;entryDx=0;entryDy=0;" edge="1" parent="1" source="NGLzfRE2hstAdica4r9p-1" target="GoWqnwifKlF_Yr-xNYbi-45">
          <mxGeometry relative="1" as="geometry" />
        </mxCell>
        <mxCell id="NGLzfRE2hstAdica4r9p-31" style="edgeStyle=orthogonalEdgeStyle;rounded=1;orthogonalLoop=1;jettySize=auto;html=1;entryX=1;entryY=0.5;entryDx=0;entryDy=0;" edge="1" parent="1" source="NGLzfRE2hstAdica4r9p-1" target="NGLzfRE2hstAdica4r9p-12">
          <mxGeometry relative="1" as="geometry" />
        </mxCell>
        <mxCell id="NGLzfRE2hstAdica4r9p-32" style="edgeStyle=orthogonalEdgeStyle;rounded=1;orthogonalLoop=1;jettySize=auto;html=1;entryX=1;entryY=0.5;entryDx=0;entryDy=0;" edge="1" parent="1" source="NGLzfRE2hstAdica4r9p-1" target="NGLzfRE2hstAdica4r9p-11">
          <mxGeometry relative="1" as="geometry" />
        </mxCell>
        <mxCell id="NGLzfRE2hstAdica4r9p-1" value="Блок ввода данных" style="rounded=1;whiteSpace=wrap;html=1;arcSize=22;" vertex="1" parent="1">
          <mxGeometry x="-100" y="10" width="120" height="60" as="geometry" />
        </mxCell>
        <mxCell id="NGLzfRE2hstAdica4r9p-55" style="edgeStyle=orthogonalEdgeStyle;rounded=1;orthogonalLoop=1;jettySize=auto;html=1;entryX=1;entryY=0.5;entryDx=0;entryDy=0;" edge="1" parent="1" source="NGLzfRE2hstAdica4r9p-2" target="NGLzfRE2hstAdica4r9p-51">
          <mxGeometry relative="1" as="geometry" />
        </mxCell>
        <mxCell id="NGLzfRE2hstAdica4r9p-145" style="edgeStyle=orthogonalEdgeStyle;rounded=1;orthogonalLoop=1;jettySize=auto;html=1;entryX=1;entryY=0.5;entryDx=0;entryDy=0;" edge="1" parent="1" source="NGLzfRE2hstAdica4r9p-2" target="NGLzfRE2hstAdica4r9p-50">
          <mxGeometry relative="1" as="geometry" />
        </mxCell>
        <mxCell id="NGLzfRE2hstAdica4r9p-146" style="edgeStyle=orthogonalEdgeStyle;rounded=1;orthogonalLoop=1;jettySize=auto;html=1;entryX=1;entryY=0.5;entryDx=0;entryDy=0;" edge="1" parent="1" source="NGLzfRE2hstAdica4r9p-2" target="NGLzfRE2hstAdica4r9p-52">
          <mxGeometry relative="1" as="geometry" />
        </mxCell>
        <mxCell id="NGLzfRE2hstAdica4r9p-2" value="Блок: баннер" style="rounded=1;whiteSpace=wrap;html=1;arcSize=22;" vertex="1" parent="1">
          <mxGeometry x="-100" y="1020" width="120" height="40" as="geometry" />
        </mxCell>
        <mxCell id="NGLzfRE2hstAdica4r9p-114" style="edgeStyle=orthogonalEdgeStyle;rounded=1;orthogonalLoop=1;jettySize=auto;html=1;entryX=1;entryY=0.5;entryDx=0;entryDy=0;" edge="1" parent="1" source="NGLzfRE2hstAdica4r9p-3" target="NGLzfRE2hstAdica4r9p-110">
          <mxGeometry relative="1" as="geometry" />
        </mxCell>
        <mxCell id="NGLzfRE2hstAdica4r9p-3" value="Блок карты построения маршрута&amp;nbsp;" style="rounded=1;whiteSpace=wrap;html=1;arcSize=22;" vertex="1" parent="1">
          <mxGeometry x="-100" y="705" width="120" height="60" as="geometry" />
        </mxCell>
        <mxCell id="NGLzfRE2hstAdica4r9p-48" style="edgeStyle=orthogonalEdgeStyle;rounded=1;orthogonalLoop=1;jettySize=auto;html=1;entryX=1;entryY=0.5;entryDx=0;entryDy=0;" edge="1" parent="1" source="NGLzfRE2hstAdica4r9p-9" target="NGLzfRE2hstAdica4r9p-46">
          <mxGeometry relative="1" as="geometry" />
        </mxCell>
        <mxCell id="NGLzfRE2hstAdica4r9p-49" style="edgeStyle=orthogonalEdgeStyle;rounded=1;orthogonalLoop=1;jettySize=auto;html=1;entryX=1;entryY=0.5;entryDx=0;entryDy=0;" edge="1" parent="1" source="NGLzfRE2hstAdica4r9p-9" target="NGLzfRE2hstAdica4r9p-44">
          <mxGeometry relative="1" as="geometry" />
        </mxCell>
        <mxCell id="NGLzfRE2hstAdica4r9p-9" value="Лого Яндекс Маршруты" style="rounded=1;whiteSpace=wrap;html=1;arcSize=22;" vertex="1" parent="1">
          <mxGeometry x="-270" y="-410" width="120" height="50" as="geometry" />
        </mxCell>
        <mxCell id="NGLzfRE2hstAdica4r9p-74" style="edgeStyle=orthogonalEdgeStyle;rounded=1;orthogonalLoop=1;jettySize=auto;html=1;entryX=1;entryY=0.5;entryDx=0;entryDy=0;" edge="1" parent="1" source="NGLzfRE2hstAdica4r9p-11" target="NGLzfRE2hstAdica4r9p-68">
          <mxGeometry relative="1" as="geometry" />
        </mxCell>
        <mxCell id="NGLzfRE2hstAdica4r9p-75" style="edgeStyle=orthogonalEdgeStyle;rounded=1;orthogonalLoop=1;jettySize=auto;html=1;entryX=1;entryY=0.5;entryDx=0;entryDy=0;" edge="1" parent="1" source="NGLzfRE2hstAdica4r9p-11" target="NGLzfRE2hstAdica4r9p-69">
          <mxGeometry relative="1" as="geometry" />
        </mxCell>
        <mxCell id="NGLzfRE2hstAdica4r9p-76" style="edgeStyle=orthogonalEdgeStyle;rounded=1;orthogonalLoop=1;jettySize=auto;html=1;" edge="1" parent="1" source="NGLzfRE2hstAdica4r9p-11" target="NGLzfRE2hstAdica4r9p-67">
          <mxGeometry relative="1" as="geometry" />
        </mxCell>
        <mxCell id="NGLzfRE2hstAdica4r9p-77" style="edgeStyle=orthogonalEdgeStyle;rounded=1;orthogonalLoop=1;jettySize=auto;html=1;entryX=1;entryY=0.5;entryDx=0;entryDy=0;" edge="1" parent="1" source="NGLzfRE2hstAdica4r9p-11" target="NGLzfRE2hstAdica4r9p-70">
          <mxGeometry relative="1" as="geometry" />
        </mxCell>
        <mxCell id="NGLzfRE2hstAdica4r9p-11" value="Панель выбора адреса Откуда/Куда" style="rounded=1;whiteSpace=wrap;html=1;arcSize=22;" vertex="1" parent="1">
          <mxGeometry x="-270" y="-110" width="120" height="50" as="geometry" />
        </mxCell>
        <mxCell id="NGLzfRE2hstAdica4r9p-89" style="edgeStyle=orthogonalEdgeStyle;rounded=1;orthogonalLoop=1;jettySize=auto;html=1;entryX=0.5;entryY=1;entryDx=0;entryDy=0;" edge="1" parent="1" source="NGLzfRE2hstAdica4r9p-12" target="NGLzfRE2hstAdica4r9p-81">
          <mxGeometry relative="1" as="geometry" />
        </mxCell>
        <mxCell id="NGLzfRE2hstAdica4r9p-90" style="edgeStyle=orthogonalEdgeStyle;rounded=1;orthogonalLoop=1;jettySize=auto;html=1;" edge="1" parent="1" source="NGLzfRE2hstAdica4r9p-12" target="NGLzfRE2hstAdica4r9p-82">
          <mxGeometry relative="1" as="geometry" />
        </mxCell>
        <mxCell id="NGLzfRE2hstAdica4r9p-12" value="Панель выбора режима и&lt;br&gt;вида транспорта" style="rounded=1;whiteSpace=wrap;html=1;arcSize=22;" vertex="1" parent="1">
          <mxGeometry x="-270" y="245" width="120" height="50" as="geometry" />
        </mxCell>
        <mxCell id="NGLzfRE2hstAdica4r9p-44" value="Маршруты" style="whiteSpace=wrap;html=1;rounded=1;arcSize=22;" vertex="1" parent="1">
          <mxGeometry x="-440" y="-380" width="120" height="40" as="geometry" />
        </mxCell>
        <mxCell id="NGLzfRE2hstAdica4r9p-46" value="Яндекс" style="whiteSpace=wrap;html=1;rounded=1;arcSize=22;" vertex="1" parent="1">
          <mxGeometry x="-440" y="-430" width="120" height="40" as="geometry" />
        </mxCell>
        <mxCell id="NGLzfRE2hstAdica4r9p-50" value="Картинка автомобиля такси&amp;nbsp;" style="rounded=1;whiteSpace=wrap;html=1;arcSize=22;" vertex="1" parent="1">
          <mxGeometry x="-440" y="940" width="120" height="50" as="geometry" />
        </mxCell>
        <mxCell id="NGLzfRE2hstAdica4r9p-51" value="Текст баннера&amp;nbsp;" style="rounded=1;whiteSpace=wrap;html=1;arcSize=22;" vertex="1" parent="1">
          <mxGeometry x="-440" y="1015" width="120" height="50" as="geometry" />
        </mxCell>
        <mxCell id="NGLzfRE2hstAdica4r9p-52" value="Кнопка &quot;Вызвать такси&quot;" style="rounded=1;whiteSpace=wrap;html=1;arcSize=22;" vertex="1" parent="1">
          <mxGeometry x="-440" y="1090" width="120" height="50" as="geometry" />
        </mxCell>
        <mxCell id="NGLzfRE2hstAdica4r9p-60" value="Поле ввода часов" style="rounded=1;whiteSpace=wrap;html=1;arcSize=22;" vertex="1" parent="1">
          <mxGeometry x="-440" y="-280" width="120" height="40" as="geometry" />
        </mxCell>
        <mxCell id="NGLzfRE2hstAdica4r9p-62" value="Поле ввода минут" style="rounded=1;whiteSpace=wrap;html=1;arcSize=22;" vertex="1" parent="1">
          <mxGeometry x="-440" y="-230" width="120" height="40" as="geometry" />
        </mxCell>
        <mxCell id="NGLzfRE2hstAdica4r9p-67" value="Поле ввода адреса Куда (с Заголовком)" style="rounded=1;whiteSpace=wrap;html=1;arcSize=22;" vertex="1" parent="1">
          <mxGeometry x="-440" y="-70" width="120" height="40" as="geometry" />
        </mxCell>
        <mxCell id="NGLzfRE2hstAdica4r9p-68" value="Поле ввода адреса Откуда (с Заголовком)" style="rounded=1;whiteSpace=wrap;html=1;arcSize=22;" vertex="1" parent="1">
          <mxGeometry x="-440" y="-170" width="120" height="40" as="geometry" />
        </mxCell>
        <mxCell id="NGLzfRE2hstAdica4r9p-69" value="Элемент обозначения Откуда красный кружок" style="rounded=1;whiteSpace=wrap;html=1;arcSize=22;" vertex="1" parent="1">
          <mxGeometry x="-440" y="-120" width="120" height="40" as="geometry" />
        </mxCell>
        <mxCell id="NGLzfRE2hstAdica4r9p-70" value="Элемент обозначения Куда синий кружок" style="rounded=1;whiteSpace=wrap;html=1;arcSize=22;" vertex="1" parent="1">
          <mxGeometry x="-440" y="-20" width="120" height="40" as="geometry" />
        </mxCell>
        <mxCell id="NGLzfRE2hstAdica4r9p-78" value="Быстрый" style="rounded=1;whiteSpace=wrap;html=1;arcSize=22;" vertex="1" parent="1">
          <mxGeometry x="-440" y="100" width="120" height="40" as="geometry" />
        </mxCell>
        <mxCell id="NGLzfRE2hstAdica4r9p-79" value="Оптимальный" style="rounded=1;whiteSpace=wrap;html=1;arcSize=22;" vertex="1" parent="1">
          <mxGeometry x="-440" y="50" width="120" height="40" as="geometry" />
        </mxCell>
        <mxCell id="NGLzfRE2hstAdica4r9p-80" value="Свой" style="rounded=1;whiteSpace=wrap;html=1;arcSize=22;" vertex="1" parent="1">
          <mxGeometry x="-440" y="150" width="120" height="40" as="geometry" />
        </mxCell>
        <mxCell id="NGLzfRE2hstAdica4r9p-91" style="edgeStyle=orthogonalEdgeStyle;rounded=1;orthogonalLoop=1;jettySize=auto;html=1;entryX=1;entryY=0.5;entryDx=0;entryDy=0;" edge="1" parent="1" source="NGLzfRE2hstAdica4r9p-81" target="NGLzfRE2hstAdica4r9p-79">
          <mxGeometry relative="1" as="geometry" />
        </mxCell>
        <mxCell id="NGLzfRE2hstAdica4r9p-92" style="edgeStyle=orthogonalEdgeStyle;rounded=1;orthogonalLoop=1;jettySize=auto;html=1;" edge="1" parent="1" source="NGLzfRE2hstAdica4r9p-81" target="NGLzfRE2hstAdica4r9p-78">
          <mxGeometry relative="1" as="geometry" />
        </mxCell>
        <mxCell id="NGLzfRE2hstAdica4r9p-93" style="edgeStyle=orthogonalEdgeStyle;rounded=1;orthogonalLoop=1;jettySize=auto;html=1;entryX=1;entryY=0.5;entryDx=0;entryDy=0;" edge="1" parent="1" source="NGLzfRE2hstAdica4r9p-81" target="NGLzfRE2hstAdica4r9p-80">
          <mxGeometry relative="1" as="geometry" />
        </mxCell>
        <mxCell id="NGLzfRE2hstAdica4r9p-81" value="Режима" style="rounded=1;whiteSpace=wrap;html=1;arcSize=22;" vertex="1" parent="1">
          <mxGeometry x="-270" y="95" width="120" height="50" as="geometry" />
        </mxCell>
        <mxCell id="NGLzfRE2hstAdica4r9p-94" style="edgeStyle=orthogonalEdgeStyle;rounded=1;orthogonalLoop=1;jettySize=auto;html=1;entryX=1;entryY=0.5;entryDx=0;entryDy=0;" edge="1" parent="1" source="NGLzfRE2hstAdica4r9p-82" target="NGLzfRE2hstAdica4r9p-84">
          <mxGeometry relative="1" as="geometry" />
        </mxCell>
        <mxCell id="NGLzfRE2hstAdica4r9p-95" style="edgeStyle=orthogonalEdgeStyle;rounded=1;orthogonalLoop=1;jettySize=auto;html=1;entryX=1;entryY=0.5;entryDx=0;entryDy=0;" edge="1" parent="1" source="NGLzfRE2hstAdica4r9p-82" target="NGLzfRE2hstAdica4r9p-83">
          <mxGeometry relative="1" as="geometry" />
        </mxCell>
        <mxCell id="NGLzfRE2hstAdica4r9p-96" style="edgeStyle=orthogonalEdgeStyle;rounded=1;orthogonalLoop=1;jettySize=auto;html=1;entryX=1;entryY=0.5;entryDx=0;entryDy=0;" edge="1" parent="1" source="NGLzfRE2hstAdica4r9p-82" target="NGLzfRE2hstAdica4r9p-85">
          <mxGeometry relative="1" as="geometry" />
        </mxCell>
        <mxCell id="NGLzfRE2hstAdica4r9p-97" style="edgeStyle=orthogonalEdgeStyle;rounded=1;orthogonalLoop=1;jettySize=auto;html=1;entryX=1;entryY=0.5;entryDx=0;entryDy=0;" edge="1" parent="1" source="NGLzfRE2hstAdica4r9p-82" target="NGLzfRE2hstAdica4r9p-88">
          <mxGeometry relative="1" as="geometry" />
        </mxCell>
        <mxCell id="NGLzfRE2hstAdica4r9p-98" style="edgeStyle=orthogonalEdgeStyle;rounded=1;orthogonalLoop=1;jettySize=auto;html=1;entryX=1;entryY=0.5;entryDx=0;entryDy=0;" edge="1" parent="1" source="NGLzfRE2hstAdica4r9p-82" target="NGLzfRE2hstAdica4r9p-86">
          <mxGeometry relative="1" as="geometry" />
        </mxCell>
        <mxCell id="NGLzfRE2hstAdica4r9p-99" style="edgeStyle=orthogonalEdgeStyle;rounded=1;orthogonalLoop=1;jettySize=auto;html=1;entryX=1;entryY=0.5;entryDx=0;entryDy=0;" edge="1" parent="1" source="NGLzfRE2hstAdica4r9p-82" target="NGLzfRE2hstAdica4r9p-87">
          <mxGeometry relative="1" as="geometry" />
        </mxCell>
        <mxCell id="NGLzfRE2hstAdica4r9p-82" value="Вид транспорта" style="rounded=1;whiteSpace=wrap;html=1;arcSize=22;" vertex="1" parent="1">
          <mxGeometry x="-270" y="370" width="120" height="50" as="geometry" />
        </mxCell>
        <mxCell id="NGLzfRE2hstAdica4r9p-83" value="Пешком" style="rounded=1;whiteSpace=wrap;html=1;arcSize=22;" vertex="1" parent="1">
          <mxGeometry x="-440" y="275" width="120" height="40" as="geometry" />
        </mxCell>
        <mxCell id="NGLzfRE2hstAdica4r9p-84" value="Собственное авто" style="rounded=1;whiteSpace=wrap;html=1;arcSize=22;" vertex="1" parent="1">
          <mxGeometry x="-440" y="225" width="120" height="40" as="geometry" />
        </mxCell>
        <mxCell id="NGLzfRE2hstAdica4r9p-85" value="Такси" style="rounded=1;whiteSpace=wrap;html=1;arcSize=22;" vertex="1" parent="1">
          <mxGeometry x="-440" y="325" width="120" height="40" as="geometry" />
        </mxCell>
        <mxCell id="NGLzfRE2hstAdica4r9p-86" value="Шеринг самокатов" style="rounded=1;whiteSpace=wrap;html=1;arcSize=22;" vertex="1" parent="1">
          <mxGeometry x="-440" y="430" width="120" height="40" as="geometry" />
        </mxCell>
        <mxCell id="NGLzfRE2hstAdica4r9p-87" value="Шеринг велосипедов" style="rounded=1;whiteSpace=wrap;html=1;arcSize=22;" vertex="1" parent="1">
          <mxGeometry x="-440" y="375" width="120" height="40" as="geometry" />
        </mxCell>
        <mxCell id="NGLzfRE2hstAdica4r9p-88" value="Каршеринг" style="rounded=1;whiteSpace=wrap;html=1;arcSize=22;" vertex="1" parent="1">
          <mxGeometry x="-440" y="480" width="120" height="40" as="geometry" />
        </mxCell>
        <mxCell id="NGLzfRE2hstAdica4r9p-104" value="Яндекс Условия использования" style="rounded=1;whiteSpace=wrap;html=1;arcSize=22;" vertex="1" parent="1">
          <mxGeometry x="-440" y="715" width="120" height="40" as="geometry" />
        </mxCell>
        <mxCell id="NGLzfRE2hstAdica4r9p-123" style="edgeStyle=orthogonalEdgeStyle;rounded=1;orthogonalLoop=1;jettySize=auto;html=1;entryX=1;entryY=0.5;entryDx=0;entryDy=0;" edge="1" parent="1" source="NGLzfRE2hstAdica4r9p-109" target="NGLzfRE2hstAdica4r9p-120">
          <mxGeometry relative="1" as="geometry" />
        </mxCell>
        <mxCell id="NGLzfRE2hstAdica4r9p-126" style="edgeStyle=orthogonalEdgeStyle;rounded=1;orthogonalLoop=1;jettySize=auto;html=1;entryX=1;entryY=0.5;entryDx=0;entryDy=0;" edge="1" parent="1" source="NGLzfRE2hstAdica4r9p-109" target="NGLzfRE2hstAdica4r9p-121">
          <mxGeometry relative="1" as="geometry" />
        </mxCell>
        <mxCell id="NGLzfRE2hstAdica4r9p-127" style="edgeStyle=orthogonalEdgeStyle;rounded=1;orthogonalLoop=1;jettySize=auto;html=1;entryX=1;entryY=0.5;entryDx=0;entryDy=0;" edge="1" parent="1" source="NGLzfRE2hstAdica4r9p-109" target="NGLzfRE2hstAdica4r9p-113">
          <mxGeometry relative="1" as="geometry" />
        </mxCell>
        <mxCell id="NGLzfRE2hstAdica4r9p-109" value="Ползунок масштаба" style="rounded=1;whiteSpace=wrap;html=1;arcSize=22;" vertex="1" parent="1">
          <mxGeometry x="-270" y="600" width="120" height="50" as="geometry" />
        </mxCell>
        <mxCell id="NGLzfRE2hstAdica4r9p-115" style="edgeStyle=orthogonalEdgeStyle;rounded=1;orthogonalLoop=1;jettySize=auto;html=1;" edge="1" parent="1" source="NGLzfRE2hstAdica4r9p-110" target="NGLzfRE2hstAdica4r9p-109">
          <mxGeometry relative="1" as="geometry" />
        </mxCell>
        <mxCell id="NGLzfRE2hstAdica4r9p-130" style="edgeStyle=orthogonalEdgeStyle;rounded=1;orthogonalLoop=1;jettySize=auto;html=1;entryX=1;entryY=0.5;entryDx=0;entryDy=0;" edge="1" parent="1" source="NGLzfRE2hstAdica4r9p-110" target="NGLzfRE2hstAdica4r9p-104">
          <mxGeometry relative="1" as="geometry" />
        </mxCell>
        <mxCell id="NGLzfRE2hstAdica4r9p-132" style="edgeStyle=orthogonalEdgeStyle;rounded=1;orthogonalLoop=1;jettySize=auto;html=1;entryX=0.5;entryY=0;entryDx=0;entryDy=0;" edge="1" parent="1" source="NGLzfRE2hstAdica4r9p-110" target="NGLzfRE2hstAdica4r9p-131">
          <mxGeometry relative="1" as="geometry" />
        </mxCell>
        <mxCell id="NGLzfRE2hstAdica4r9p-110" value="Интерактивная Карта" style="rounded=1;whiteSpace=wrap;html=1;arcSize=22;" vertex="1" parent="1">
          <mxGeometry x="-270" y="710" width="120" height="50" as="geometry" />
        </mxCell>
        <mxCell id="NGLzfRE2hstAdica4r9p-113" value="Ползунок" style="rounded=1;whiteSpace=wrap;html=1;arcSize=22;" vertex="1" parent="1">
          <mxGeometry x="-440" y="655" width="120" height="40" as="geometry" />
        </mxCell>
        <mxCell id="NGLzfRE2hstAdica4r9p-120" value="Плюс" style="rounded=1;whiteSpace=wrap;html=1;arcSize=22;" vertex="1" parent="1">
          <mxGeometry x="-440" y="550" width="120" height="40" as="geometry" />
        </mxCell>
        <mxCell id="NGLzfRE2hstAdica4r9p-121" value="Минус" style="rounded=1;whiteSpace=wrap;html=1;arcSize=22;" vertex="1" parent="1">
          <mxGeometry x="-440" y="605" width="120" height="40" as="geometry" />
        </mxCell>
        <mxCell id="NGLzfRE2hstAdica4r9p-136" style="edgeStyle=orthogonalEdgeStyle;rounded=1;orthogonalLoop=1;jettySize=auto;html=1;entryX=1;entryY=0.5;entryDx=0;entryDy=0;" edge="1" parent="1" source="NGLzfRE2hstAdica4r9p-131" target="NGLzfRE2hstAdica4r9p-134">
          <mxGeometry relative="1" as="geometry" />
        </mxCell>
        <mxCell id="NGLzfRE2hstAdica4r9p-137" style="edgeStyle=orthogonalEdgeStyle;rounded=1;orthogonalLoop=1;jettySize=auto;html=1;" edge="1" parent="1" source="NGLzfRE2hstAdica4r9p-131" target="NGLzfRE2hstAdica4r9p-135">
          <mxGeometry relative="1" as="geometry" />
        </mxCell>
        <mxCell id="NGLzfRE2hstAdica4r9p-138" style="edgeStyle=orthogonalEdgeStyle;rounded=1;orthogonalLoop=1;jettySize=auto;html=1;entryX=1;entryY=0.5;entryDx=0;entryDy=0;" edge="1" parent="1" source="NGLzfRE2hstAdica4r9p-131" target="NGLzfRE2hstAdica4r9p-133">
          <mxGeometry relative="1" as="geometry" />
        </mxCell>
        <mxCell id="NGLzfRE2hstAdica4r9p-131" value="Визуализация маршрута" style="rounded=1;whiteSpace=wrap;html=1;arcSize=22;" vertex="1" parent="1">
          <mxGeometry x="-270" y="800" width="120" height="50" as="geometry" />
        </mxCell>
        <mxCell id="NGLzfRE2hstAdica4r9p-133" value="Маршрут" style="rounded=1;whiteSpace=wrap;html=1;arcSize=22;" vertex="1" parent="1">
          <mxGeometry x="-440" y="875" width="120" height="40" as="geometry" />
        </mxCell>
        <mxCell id="NGLzfRE2hstAdica4r9p-134" value="Точка Откуда" style="rounded=1;whiteSpace=wrap;html=1;arcSize=22;" vertex="1" parent="1">
          <mxGeometry x="-440" y="770" width="120" height="40" as="geometry" />
        </mxCell>
        <mxCell id="NGLzfRE2hstAdica4r9p-135" value="Точка Куда" style="rounded=1;whiteSpace=wrap;html=1;arcSize=22;" vertex="1" parent="1">
          <mxGeometry x="-440" y="825" width="120" height="40" as="geometry" />
        </mxCell>
        <mxCell id="NGLzfRE2hstAdica4r9p-181" style="edgeStyle=orthogonalEdgeStyle;rounded=1;orthogonalLoop=1;jettySize=auto;html=1;entryX=0;entryY=0.5;entryDx=0;entryDy=0;" edge="1" parent="1" source="NGLzfRE2hstAdica4r9p-141" target="NGLzfRE2hstAdica4r9p-152">
          <mxGeometry relative="1" as="geometry" />
        </mxCell>
        <mxCell id="NGLzfRE2hstAdica4r9p-182" style="edgeStyle=orthogonalEdgeStyle;rounded=1;orthogonalLoop=1;jettySize=auto;html=1;entryX=0;entryY=0.5;entryDx=0;entryDy=0;" edge="1" parent="1" source="NGLzfRE2hstAdica4r9p-141" target="NGLzfRE2hstAdica4r9p-151">
          <mxGeometry relative="1" as="geometry">
            <Array as="points">
              <mxPoint x="570" y="735" />
              <mxPoint x="570" y="1040" />
            </Array>
          </mxGeometry>
        </mxCell>
        <mxCell id="NGLzfRE2hstAdica4r9p-183" style="edgeStyle=orthogonalEdgeStyle;rounded=1;orthogonalLoop=1;jettySize=auto;html=1;entryX=0;entryY=0.5;entryDx=0;entryDy=0;" edge="1" parent="1" source="NGLzfRE2hstAdica4r9p-141" target="NGLzfRE2hstAdica4r9p-150">
          <mxGeometry relative="1" as="geometry">
            <Array as="points">
              <mxPoint x="570" y="735" />
              <mxPoint x="570" y="40" />
            </Array>
          </mxGeometry>
        </mxCell>
        <mxCell id="NGLzfRE2hstAdica4r9p-141" value="Логика" style="rounded=1;whiteSpace=wrap;html=1;arcSize=22;" vertex="1" parent="1">
          <mxGeometry x="400" y="700" width="120" height="70" as="geometry" />
        </mxCell>
        <mxCell id="NGLzfRE2hstAdica4r9p-143" value="Заголовок" style="rounded=1;whiteSpace=wrap;html=1;arcSize=22;" vertex="1" parent="1">
          <mxGeometry x="-440" y="-330" width="120" height="40" as="geometry" />
        </mxCell>
        <mxCell id="NGLzfRE2hstAdica4r9p-219" style="edgeStyle=orthogonalEdgeStyle;rounded=1;orthogonalLoop=1;jettySize=auto;html=1;entryX=0;entryY=0.5;entryDx=0;entryDy=0;" edge="1" parent="1" source="NGLzfRE2hstAdica4r9p-150" target="NGLzfRE2hstAdica4r9p-158">
          <mxGeometry relative="1" as="geometry" />
        </mxCell>
        <mxCell id="NGLzfRE2hstAdica4r9p-220" style="edgeStyle=orthogonalEdgeStyle;rounded=1;orthogonalLoop=1;jettySize=auto;html=1;entryX=0;entryY=0.5;entryDx=0;entryDy=0;" edge="1" parent="1" source="NGLzfRE2hstAdica4r9p-150" target="NGLzfRE2hstAdica4r9p-159">
          <mxGeometry relative="1" as="geometry" />
        </mxCell>
        <mxCell id="NGLzfRE2hstAdica4r9p-221" style="edgeStyle=orthogonalEdgeStyle;rounded=1;orthogonalLoop=1;jettySize=auto;html=1;entryX=0;entryY=0.5;entryDx=0;entryDy=0;" edge="1" parent="1" source="NGLzfRE2hstAdica4r9p-150" target="NGLzfRE2hstAdica4r9p-160">
          <mxGeometry relative="1" as="geometry" />
        </mxCell>
        <mxCell id="NGLzfRE2hstAdica4r9p-237" style="edgeStyle=orthogonalEdgeStyle;rounded=1;orthogonalLoop=1;jettySize=auto;html=1;entryX=0;entryY=0.5;entryDx=0;entryDy=0;" edge="1" parent="1" source="NGLzfRE2hstAdica4r9p-150" target="NGLzfRE2hstAdica4r9p-236">
          <mxGeometry relative="1" as="geometry" />
        </mxCell>
        <mxCell id="NGLzfRE2hstAdica4r9p-150" value="Блок ввода данных" style="rounded=1;whiteSpace=wrap;html=1;arcSize=22;" vertex="1" parent="1">
          <mxGeometry x="600" y="10" width="120" height="60" as="geometry" />
        </mxCell>
        <mxCell id="NGLzfRE2hstAdica4r9p-184" style="edgeStyle=orthogonalEdgeStyle;rounded=1;orthogonalLoop=1;jettySize=auto;html=1;entryX=0;entryY=0.5;entryDx=0;entryDy=0;" edge="1" parent="1" source="NGLzfRE2hstAdica4r9p-151" target="NGLzfRE2hstAdica4r9p-171">
          <mxGeometry relative="1" as="geometry" />
        </mxCell>
        <mxCell id="NGLzfRE2hstAdica4r9p-151" value="Блок: баннер" style="rounded=1;whiteSpace=wrap;html=1;arcSize=22;" vertex="1" parent="1">
          <mxGeometry x="600" y="1020" width="120" height="40" as="geometry" />
        </mxCell>
        <mxCell id="NGLzfRE2hstAdica4r9p-185" style="edgeStyle=orthogonalEdgeStyle;rounded=1;orthogonalLoop=1;jettySize=auto;html=1;entryX=0;entryY=0.5;entryDx=0;entryDy=0;" edge="1" parent="1" source="NGLzfRE2hstAdica4r9p-152" target="NGLzfRE2hstAdica4r9p-174">
          <mxGeometry relative="1" as="geometry" />
        </mxCell>
        <mxCell id="NGLzfRE2hstAdica4r9p-152" value="Блок карты построения маршрута&amp;nbsp;" style="rounded=1;whiteSpace=wrap;html=1;arcSize=22;" vertex="1" parent="1">
          <mxGeometry x="600" y="705" width="120" height="60" as="geometry" />
        </mxCell>
        <mxCell id="NGLzfRE2hstAdica4r9p-153" value="Лого Яндекс Маршруты" style="rounded=1;whiteSpace=wrap;html=1;arcSize=22;" vertex="1" parent="1">
          <mxGeometry x="-270" y="-410" width="120" height="50" as="geometry" />
        </mxCell>
        <mxCell id="NGLzfRE2hstAdica4r9p-154" value="Панель выбора времени начала поездки" style="rounded=1;whiteSpace=wrap;html=1;arcSize=22;" vertex="1" parent="1">
          <mxGeometry x="-270" y="-270" width="120" height="50" as="geometry" />
        </mxCell>
        <mxCell id="NGLzfRE2hstAdica4r9p-155" value="Панель выбора адреса Откуда/Куда" style="rounded=1;whiteSpace=wrap;html=1;arcSize=22;" vertex="1" parent="1">
          <mxGeometry x="-270" y="-110" width="120" height="50" as="geometry" />
        </mxCell>
        <mxCell id="NGLzfRE2hstAdica4r9p-156" value="Режима" style="rounded=1;whiteSpace=wrap;html=1;arcSize=22;" vertex="1" parent="1">
          <mxGeometry x="-270" y="95" width="120" height="50" as="geometry" />
        </mxCell>
        <mxCell id="NGLzfRE2hstAdica4r9p-157" value="Панель выбора режима и&lt;br&gt;вида транспорта" style="rounded=1;whiteSpace=wrap;html=1;arcSize=22;" vertex="1" parent="1">
          <mxGeometry x="-270" y="245" width="120" height="50" as="geometry" />
        </mxCell>
        <mxCell id="NGLzfRE2hstAdica4r9p-214" style="edgeStyle=orthogonalEdgeStyle;rounded=1;orthogonalLoop=1;jettySize=auto;html=1;entryX=0;entryY=0.5;entryDx=0;entryDy=0;" edge="1" parent="1" source="NGLzfRE2hstAdica4r9p-158" target="NGLzfRE2hstAdica4r9p-167">
          <mxGeometry relative="1" as="geometry" />
        </mxCell>
        <mxCell id="NGLzfRE2hstAdica4r9p-215" style="edgeStyle=orthogonalEdgeStyle;rounded=1;orthogonalLoop=1;jettySize=auto;html=1;entryX=0;entryY=0.5;entryDx=0;entryDy=0;" edge="1" parent="1" source="NGLzfRE2hstAdica4r9p-158" target="NGLzfRE2hstAdica4r9p-166">
          <mxGeometry relative="1" as="geometry" />
        </mxCell>
        <mxCell id="NGLzfRE2hstAdica4r9p-158" value="Лого Яндекс Маршруты" style="rounded=1;whiteSpace=wrap;html=1;arcSize=22;" vertex="1" parent="1">
          <mxGeometry x="795" y="-410" width="120" height="50" as="geometry" />
        </mxCell>
        <mxCell id="NGLzfRE2hstAdica4r9p-217" style="edgeStyle=orthogonalEdgeStyle;rounded=1;orthogonalLoop=1;jettySize=auto;html=1;entryX=0;entryY=0.5;entryDx=0;entryDy=0;" edge="1" parent="1" source="NGLzfRE2hstAdica4r9p-159" target="NGLzfRE2hstAdica4r9p-169">
          <mxGeometry relative="1" as="geometry" />
        </mxCell>
        <mxCell id="NGLzfRE2hstAdica4r9p-218" style="edgeStyle=orthogonalEdgeStyle;rounded=1;orthogonalLoop=1;jettySize=auto;html=1;entryX=0;entryY=0.5;entryDx=0;entryDy=0;" edge="1" parent="1" source="NGLzfRE2hstAdica4r9p-159" target="NGLzfRE2hstAdica4r9p-170">
          <mxGeometry relative="1" as="geometry" />
        </mxCell>
        <mxCell id="NGLzfRE2hstAdica4r9p-159" value="Панель выбора времени начала поездки" style="rounded=1;whiteSpace=wrap;html=1;arcSize=22;" vertex="1" parent="1">
          <mxGeometry x="795" y="-270" width="120" height="50" as="geometry" />
        </mxCell>
        <mxCell id="NGLzfRE2hstAdica4r9p-224" style="edgeStyle=orthogonalEdgeStyle;rounded=1;orthogonalLoop=1;jettySize=auto;html=1;entryX=0;entryY=0.5;entryDx=0;entryDy=0;" edge="1" parent="1" source="NGLzfRE2hstAdica4r9p-160" target="NGLzfRE2hstAdica4r9p-223">
          <mxGeometry relative="1" as="geometry" />
        </mxCell>
        <mxCell id="NGLzfRE2hstAdica4r9p-225" style="edgeStyle=orthogonalEdgeStyle;rounded=1;orthogonalLoop=1;jettySize=auto;html=1;entryX=0;entryY=0.5;entryDx=0;entryDy=0;" edge="1" parent="1" source="NGLzfRE2hstAdica4r9p-160" target="NGLzfRE2hstAdica4r9p-222">
          <mxGeometry relative="1" as="geometry" />
        </mxCell>
        <mxCell id="NGLzfRE2hstAdica4r9p-160" value="Панель выбора адреса Откуда/Куда" style="rounded=1;whiteSpace=wrap;html=1;arcSize=22;" vertex="1" parent="1">
          <mxGeometry x="795" y="-110" width="120" height="50" as="geometry" />
        </mxCell>
        <mxCell id="NGLzfRE2hstAdica4r9p-161" value="Клик на Яндекс ведет на главную страницу сервиса поиска Яндекс" style="whiteSpace=wrap;html=1;rounded=1;arcSize=22;" vertex="1" parent="1">
          <mxGeometry x="1160" y="-430" width="570" height="40" as="geometry" />
        </mxCell>
        <mxCell id="NGLzfRE2hstAdica4r9p-162" value="Пользователь&amp;nbsp; устанавливает время своего отправления в единицах измерения - часы&amp;nbsp;" style="whiteSpace=wrap;html=1;rounded=1;arcSize=22;" vertex="1" parent="1">
          <mxGeometry x="1160" y="-280" width="570" height="40" as="geometry" />
        </mxCell>
        <mxCell id="NGLzfRE2hstAdica4r9p-229" style="edgeStyle=orthogonalEdgeStyle;rounded=1;orthogonalLoop=1;jettySize=auto;html=1;entryX=0;entryY=0.5;entryDx=0;entryDy=0;" edge="1" parent="1" source="NGLzfRE2hstAdica4r9p-166" target="NGLzfRE2hstAdica4r9p-168">
          <mxGeometry relative="1" as="geometry" />
        </mxCell>
        <mxCell id="NGLzfRE2hstAdica4r9p-166" value="Маршруты" style="whiteSpace=wrap;html=1;rounded=1;arcSize=22;" vertex="1" parent="1">
          <mxGeometry x="970" y="-380" width="120" height="40" as="geometry" />
        </mxCell>
        <mxCell id="NGLzfRE2hstAdica4r9p-228" style="edgeStyle=orthogonalEdgeStyle;rounded=1;orthogonalLoop=1;jettySize=auto;html=1;entryX=0;entryY=0.5;entryDx=0;entryDy=0;" edge="1" parent="1" source="NGLzfRE2hstAdica4r9p-167" target="NGLzfRE2hstAdica4r9p-161">
          <mxGeometry relative="1" as="geometry" />
        </mxCell>
        <mxCell id="NGLzfRE2hstAdica4r9p-167" value="Яндекс" style="whiteSpace=wrap;html=1;rounded=1;arcSize=22;" vertex="1" parent="1">
          <mxGeometry x="970" y="-430" width="120" height="40" as="geometry" />
        </mxCell>
        <mxCell id="NGLzfRE2hstAdica4r9p-168" value="Клик на Маршруты ведет на главную страницу сервиса Маршруты" style="whiteSpace=wrap;html=1;rounded=1;arcSize=22;" vertex="1" parent="1">
          <mxGeometry x="1160" y="-380" width="570" height="40" as="geometry" />
        </mxCell>
        <mxCell id="NGLzfRE2hstAdica4r9p-230" style="edgeStyle=orthogonalEdgeStyle;rounded=1;orthogonalLoop=1;jettySize=auto;html=1;entryX=0;entryY=0.5;entryDx=0;entryDy=0;" edge="1" parent="1" source="NGLzfRE2hstAdica4r9p-169" target="NGLzfRE2hstAdica4r9p-162">
          <mxGeometry relative="1" as="geometry" />
        </mxCell>
        <mxCell id="NGLzfRE2hstAdica4r9p-169" value="Поле ввода часов" style="rounded=1;whiteSpace=wrap;html=1;arcSize=22;" vertex="1" parent="1">
          <mxGeometry x="970" y="-280" width="120" height="40" as="geometry" />
        </mxCell>
        <mxCell id="NGLzfRE2hstAdica4r9p-231" style="edgeStyle=orthogonalEdgeStyle;rounded=1;orthogonalLoop=1;jettySize=auto;html=1;entryX=0;entryY=0.5;entryDx=0;entryDy=0;" edge="1" parent="1" source="NGLzfRE2hstAdica4r9p-170" target="NGLzfRE2hstAdica4r9p-216">
          <mxGeometry relative="1" as="geometry" />
        </mxCell>
        <mxCell id="NGLzfRE2hstAdica4r9p-170" value="Поле ввода минут" style="rounded=1;whiteSpace=wrap;html=1;arcSize=22;" vertex="1" parent="1">
          <mxGeometry x="970" y="-230" width="120" height="40" as="geometry" />
        </mxCell>
        <mxCell id="NGLzfRE2hstAdica4r9p-200" style="edgeStyle=orthogonalEdgeStyle;rounded=1;orthogonalLoop=1;jettySize=auto;html=1;entryX=0;entryY=0.5;entryDx=0;entryDy=0;" edge="1" parent="1" source="NGLzfRE2hstAdica4r9p-171" target="NGLzfRE2hstAdica4r9p-172">
          <mxGeometry relative="1" as="geometry" />
        </mxCell>
        <mxCell id="NGLzfRE2hstAdica4r9p-171" value="Кнопка &quot;Вызвать такси&quot;" style="rounded=1;whiteSpace=wrap;html=1;arcSize=22;" vertex="1" parent="1">
          <mxGeometry x="980" y="1090" width="120" height="50" as="geometry" />
        </mxCell>
        <mxCell id="NGLzfRE2hstAdica4r9p-172" value="Клик на кнопку ведет в сервис&amp;nbsp; вызова такси" style="whiteSpace=wrap;html=1;rounded=1;arcSize=22;" vertex="1" parent="1">
          <mxGeometry x="1160" y="1095" width="570" height="40" as="geometry" />
        </mxCell>
        <mxCell id="NGLzfRE2hstAdica4r9p-201" style="edgeStyle=orthogonalEdgeStyle;rounded=1;orthogonalLoop=1;jettySize=auto;html=1;entryX=0;entryY=0.5;entryDx=0;entryDy=0;" edge="1" parent="1" source="NGLzfRE2hstAdica4r9p-173" target="NGLzfRE2hstAdica4r9p-177">
          <mxGeometry relative="1" as="geometry" />
        </mxCell>
        <mxCell id="NGLzfRE2hstAdica4r9p-202" style="edgeStyle=orthogonalEdgeStyle;rounded=1;orthogonalLoop=1;jettySize=auto;html=1;entryX=0;entryY=0.5;entryDx=0;entryDy=0;" edge="1" parent="1" source="NGLzfRE2hstAdica4r9p-173" target="NGLzfRE2hstAdica4r9p-178">
          <mxGeometry relative="1" as="geometry" />
        </mxCell>
        <mxCell id="NGLzfRE2hstAdica4r9p-203" style="edgeStyle=orthogonalEdgeStyle;rounded=1;orthogonalLoop=1;jettySize=auto;html=1;entryX=0;entryY=0.5;entryDx=0;entryDy=0;" edge="1" parent="1" source="NGLzfRE2hstAdica4r9p-173" target="NGLzfRE2hstAdica4r9p-176">
          <mxGeometry relative="1" as="geometry" />
        </mxCell>
        <mxCell id="NGLzfRE2hstAdica4r9p-173" value="Ползунок масштаба" style="rounded=1;whiteSpace=wrap;html=1;arcSize=22;" vertex="1" parent="1">
          <mxGeometry x="795" y="600" width="120" height="50" as="geometry" />
        </mxCell>
        <mxCell id="NGLzfRE2hstAdica4r9p-186" style="edgeStyle=orthogonalEdgeStyle;rounded=1;orthogonalLoop=1;jettySize=auto;html=1;entryX=0;entryY=0.5;entryDx=0;entryDy=0;" edge="1" parent="1" source="NGLzfRE2hstAdica4r9p-174" target="NGLzfRE2hstAdica4r9p-179">
          <mxGeometry relative="1" as="geometry" />
        </mxCell>
        <mxCell id="NGLzfRE2hstAdica4r9p-211" style="edgeStyle=orthogonalEdgeStyle;rounded=1;orthogonalLoop=1;jettySize=auto;html=1;entryX=0.5;entryY=1;entryDx=0;entryDy=0;" edge="1" parent="1" source="NGLzfRE2hstAdica4r9p-174" target="NGLzfRE2hstAdica4r9p-173">
          <mxGeometry relative="1" as="geometry" />
        </mxCell>
        <mxCell id="NGLzfRE2hstAdica4r9p-212" style="edgeStyle=orthogonalEdgeStyle;rounded=1;orthogonalLoop=1;jettySize=auto;html=1;entryX=0.5;entryY=0;entryDx=0;entryDy=0;" edge="1" parent="1" source="NGLzfRE2hstAdica4r9p-174" target="NGLzfRE2hstAdica4r9p-175">
          <mxGeometry relative="1" as="geometry" />
        </mxCell>
        <mxCell id="NGLzfRE2hstAdica4r9p-174" value="Интерактивная Карта" style="rounded=1;whiteSpace=wrap;html=1;arcSize=22;" vertex="1" parent="1">
          <mxGeometry x="795" y="710" width="120" height="50" as="geometry" />
        </mxCell>
        <mxCell id="NGLzfRE2hstAdica4r9p-197" style="edgeStyle=orthogonalEdgeStyle;rounded=1;orthogonalLoop=1;jettySize=auto;html=1;entryX=0;entryY=0.5;entryDx=0;entryDy=0;" edge="1" parent="1" source="NGLzfRE2hstAdica4r9p-175" target="NGLzfRE2hstAdica4r9p-189">
          <mxGeometry relative="1" as="geometry" />
        </mxCell>
        <mxCell id="NGLzfRE2hstAdica4r9p-198" style="edgeStyle=orthogonalEdgeStyle;rounded=1;orthogonalLoop=1;jettySize=auto;html=1;entryX=0;entryY=0.5;entryDx=0;entryDy=0;" edge="1" parent="1" source="NGLzfRE2hstAdica4r9p-175" target="NGLzfRE2hstAdica4r9p-190">
          <mxGeometry relative="1" as="geometry" />
        </mxCell>
        <mxCell id="NGLzfRE2hstAdica4r9p-175" value="Визуализация маршрута" style="rounded=1;whiteSpace=wrap;html=1;arcSize=22;" vertex="1" parent="1">
          <mxGeometry x="795" y="800" width="120" height="50" as="geometry" />
        </mxCell>
        <mxCell id="NGLzfRE2hstAdica4r9p-209" style="edgeStyle=orthogonalEdgeStyle;rounded=1;orthogonalLoop=1;jettySize=auto;html=1;entryX=0;entryY=0.5;entryDx=0;entryDy=0;" edge="1" parent="1" source="NGLzfRE2hstAdica4r9p-176" target="NGLzfRE2hstAdica4r9p-206">
          <mxGeometry relative="1" as="geometry" />
        </mxCell>
        <mxCell id="NGLzfRE2hstAdica4r9p-176" value="Ползунок" style="rounded=1;whiteSpace=wrap;html=1;arcSize=22;" vertex="1" parent="1">
          <mxGeometry x="970" y="655" width="120" height="40" as="geometry" />
        </mxCell>
        <mxCell id="NGLzfRE2hstAdica4r9p-207" style="edgeStyle=orthogonalEdgeStyle;rounded=1;orthogonalLoop=1;jettySize=auto;html=1;entryX=0;entryY=0.5;entryDx=0;entryDy=0;" edge="1" parent="1" source="NGLzfRE2hstAdica4r9p-177" target="NGLzfRE2hstAdica4r9p-204">
          <mxGeometry relative="1" as="geometry" />
        </mxCell>
        <mxCell id="NGLzfRE2hstAdica4r9p-177" value="Плюс" style="rounded=1;whiteSpace=wrap;html=1;arcSize=22;" vertex="1" parent="1">
          <mxGeometry x="970" y="550" width="120" height="40" as="geometry" />
        </mxCell>
        <mxCell id="NGLzfRE2hstAdica4r9p-208" style="edgeStyle=orthogonalEdgeStyle;rounded=1;orthogonalLoop=1;jettySize=auto;html=1;entryX=0;entryY=0.5;entryDx=0;entryDy=0;" edge="1" parent="1" source="NGLzfRE2hstAdica4r9p-178" target="NGLzfRE2hstAdica4r9p-205">
          <mxGeometry relative="1" as="geometry" />
        </mxCell>
        <mxCell id="NGLzfRE2hstAdica4r9p-178" value="Минус" style="rounded=1;whiteSpace=wrap;html=1;arcSize=22;" vertex="1" parent="1">
          <mxGeometry x="970" y="605" width="120" height="40" as="geometry" />
        </mxCell>
        <mxCell id="NGLzfRE2hstAdica4r9p-187" style="edgeStyle=orthogonalEdgeStyle;rounded=1;orthogonalLoop=1;jettySize=auto;html=1;entryX=0;entryY=0.5;entryDx=0;entryDy=0;" edge="1" parent="1" source="NGLzfRE2hstAdica4r9p-179" target="NGLzfRE2hstAdica4r9p-180">
          <mxGeometry relative="1" as="geometry" />
        </mxCell>
        <mxCell id="NGLzfRE2hstAdica4r9p-179" value="&amp;nbsp;Яндекс Условия использования" style="rounded=1;whiteSpace=wrap;html=1;arcSize=22;" vertex="1" parent="1">
          <mxGeometry x="970" y="715" width="120" height="40" as="geometry" />
        </mxCell>
        <mxCell id="NGLzfRE2hstAdica4r9p-180" value="Клик на кнопку ведет на страницу условия использования" style="whiteSpace=wrap;html=1;rounded=1;arcSize=22;" vertex="1" parent="1">
          <mxGeometry x="1160" y="715" width="570" height="40" as="geometry" />
        </mxCell>
        <mxCell id="NGLzfRE2hstAdica4r9p-196" style="edgeStyle=orthogonalEdgeStyle;rounded=1;orthogonalLoop=1;jettySize=auto;html=1;entryX=0;entryY=0.5;entryDx=0;entryDy=0;" edge="1" parent="1" source="NGLzfRE2hstAdica4r9p-188" target="NGLzfRE2hstAdica4r9p-193">
          <mxGeometry relative="1" as="geometry" />
        </mxCell>
        <mxCell id="NGLzfRE2hstAdica4r9p-188" value="Маршрут" style="rounded=1;whiteSpace=wrap;html=1;arcSize=22;" vertex="1" parent="1">
          <mxGeometry x="970" y="950" width="120" height="40" as="geometry" />
        </mxCell>
        <mxCell id="NGLzfRE2hstAdica4r9p-194" style="edgeStyle=orthogonalEdgeStyle;rounded=1;orthogonalLoop=1;jettySize=auto;html=1;entryX=0;entryY=0.5;entryDx=0;entryDy=0;" edge="1" parent="1" source="NGLzfRE2hstAdica4r9p-189" target="NGLzfRE2hstAdica4r9p-191">
          <mxGeometry relative="1" as="geometry" />
        </mxCell>
        <mxCell id="NGLzfRE2hstAdica4r9p-282" style="edgeStyle=orthogonalEdgeStyle;rounded=1;orthogonalLoop=1;jettySize=auto;html=1;entryX=1;entryY=0.5;entryDx=0;entryDy=0;strokeColor=#FF0000;" edge="1" parent="1" source="NGLzfRE2hstAdica4r9p-189" target="NGLzfRE2hstAdica4r9p-188">
          <mxGeometry relative="1" as="geometry">
            <Array as="points">
              <mxPoint x="1050" y="882" />
              <mxPoint x="1110" y="882" />
              <mxPoint x="1110" y="970" />
            </Array>
          </mxGeometry>
        </mxCell>
        <mxCell id="NGLzfRE2hstAdica4r9p-189" value="Точка Откуда" style="rounded=1;whiteSpace=wrap;html=1;arcSize=22;" vertex="1" parent="1">
          <mxGeometry x="970" y="773.75" width="120" height="40" as="geometry" />
        </mxCell>
        <mxCell id="NGLzfRE2hstAdica4r9p-195" style="edgeStyle=orthogonalEdgeStyle;rounded=1;orthogonalLoop=1;jettySize=auto;html=1;entryX=0;entryY=0.5;entryDx=0;entryDy=0;" edge="1" parent="1" source="NGLzfRE2hstAdica4r9p-190" target="NGLzfRE2hstAdica4r9p-192">
          <mxGeometry relative="1" as="geometry" />
        </mxCell>
        <mxCell id="NGLzfRE2hstAdica4r9p-283" style="edgeStyle=orthogonalEdgeStyle;rounded=1;orthogonalLoop=1;jettySize=auto;html=1;entryX=0.5;entryY=0;entryDx=0;entryDy=0;strokeColor=#FF0000;" edge="1" parent="1" source="NGLzfRE2hstAdica4r9p-190" target="NGLzfRE2hstAdica4r9p-188">
          <mxGeometry relative="1" as="geometry" />
        </mxCell>
        <mxCell id="NGLzfRE2hstAdica4r9p-190" value="Точка Куда" style="rounded=1;whiteSpace=wrap;html=1;arcSize=22;" vertex="1" parent="1">
          <mxGeometry x="970" y="828.75" width="120" height="40" as="geometry" />
        </mxCell>
        <mxCell id="NGLzfRE2hstAdica4r9p-191" value="Отображает адрес на карте, введенный в поле Откуда из Блока ввода данных&amp;nbsp;" style="whiteSpace=wrap;html=1;rounded=1;arcSize=22;" vertex="1" parent="1">
          <mxGeometry x="1160" y="773.75" width="570" height="40" as="geometry" />
        </mxCell>
        <mxCell id="NGLzfRE2hstAdica4r9p-192" value="Отображает адрес на карте, введенный в поле Куда из Блока ввода данных" style="whiteSpace=wrap;html=1;rounded=1;arcSize=22;" vertex="1" parent="1">
          <mxGeometry x="1160" y="828.75" width="570" height="40" as="geometry" />
        </mxCell>
        <mxCell id="NGLzfRE2hstAdica4r9p-193" value="Построение маршрута от точки Откуда в точку Куда" style="whiteSpace=wrap;html=1;rounded=1;arcSize=22;" vertex="1" parent="1">
          <mxGeometry x="1160" y="950" width="570" height="40" as="geometry" />
        </mxCell>
        <mxCell id="NGLzfRE2hstAdica4r9p-204" value="Уменьшает масштаб интерактивной карты" style="whiteSpace=wrap;html=1;rounded=1;arcSize=22;" vertex="1" parent="1">
          <mxGeometry x="1160" y="550" width="570" height="40" as="geometry" />
        </mxCell>
        <mxCell id="NGLzfRE2hstAdica4r9p-205" value="Увеличивает масштаб интерактивной карты" style="whiteSpace=wrap;html=1;rounded=1;arcSize=22;" vertex="1" parent="1">
          <mxGeometry x="1160" y="605" width="570" height="40" as="geometry" />
        </mxCell>
        <mxCell id="NGLzfRE2hstAdica4r9p-206" value="Отображает адрес на карте, введенный в поле Куда из Блока ввода данных" style="whiteSpace=wrap;html=1;rounded=1;arcSize=22;" vertex="1" parent="1">
          <mxGeometry x="1160" y="655" width="570" height="40" as="geometry" />
        </mxCell>
        <mxCell id="NGLzfRE2hstAdica4r9p-213" value="Проверяй шрифт" style="whiteSpace=wrap;html=1;rounded=1;arcSize=22;" vertex="1" parent="1">
          <mxGeometry x="-1060" y="1020" width="570" height="40" as="geometry" />
        </mxCell>
        <mxCell id="NGLzfRE2hstAdica4r9p-216" value="Пользователь&amp;nbsp; устанавливает время своего отправления в единицах измерения - минуты" style="whiteSpace=wrap;html=1;rounded=1;arcSize=22;" vertex="1" parent="1">
          <mxGeometry x="1160" y="-230" width="570" height="40" as="geometry" />
        </mxCell>
        <mxCell id="NGLzfRE2hstAdica4r9p-233" style="edgeStyle=orthogonalEdgeStyle;rounded=1;orthogonalLoop=1;jettySize=auto;html=1;entryX=0;entryY=0.5;entryDx=0;entryDy=0;" edge="1" parent="1" source="NGLzfRE2hstAdica4r9p-222" target="NGLzfRE2hstAdica4r9p-226">
          <mxGeometry relative="1" as="geometry" />
        </mxCell>
        <mxCell id="NGLzfRE2hstAdica4r9p-279" style="edgeStyle=orthogonalEdgeStyle;rounded=1;orthogonalLoop=1;jettySize=auto;html=1;entryX=1;entryY=0.5;entryDx=0;entryDy=0;strokeColor=#FF0000;" edge="1" parent="1" source="NGLzfRE2hstAdica4r9p-222" target="NGLzfRE2hstAdica4r9p-190">
          <mxGeometry relative="1" as="geometry">
            <Array as="points">
              <mxPoint x="1030" y="40" />
              <mxPoint x="1130" y="40" />
              <mxPoint x="1130" y="849" />
            </Array>
          </mxGeometry>
        </mxCell>
        <mxCell id="NGLzfRE2hstAdica4r9p-222" value="Поле ввода адреса Куда" style="rounded=1;whiteSpace=wrap;html=1;arcSize=22;" vertex="1" parent="1">
          <mxGeometry x="970" y="-70" width="120" height="40" as="geometry" />
        </mxCell>
        <mxCell id="NGLzfRE2hstAdica4r9p-232" style="edgeStyle=orthogonalEdgeStyle;rounded=1;orthogonalLoop=1;jettySize=auto;html=1;entryX=0;entryY=0.5;entryDx=0;entryDy=0;" edge="1" parent="1" source="NGLzfRE2hstAdica4r9p-223" target="NGLzfRE2hstAdica4r9p-227">
          <mxGeometry relative="1" as="geometry" />
        </mxCell>
        <mxCell id="NGLzfRE2hstAdica4r9p-277" style="edgeStyle=orthogonalEdgeStyle;rounded=1;orthogonalLoop=1;jettySize=auto;html=1;entryX=1;entryY=0.5;entryDx=0;entryDy=0;strokeColor=#FF0000;" edge="1" parent="1" source="NGLzfRE2hstAdica4r9p-223" target="NGLzfRE2hstAdica4r9p-189">
          <mxGeometry relative="1" as="geometry">
            <Array as="points">
              <mxPoint x="1070" y="20" />
              <mxPoint x="1100" y="20" />
              <mxPoint x="1100" y="794" />
            </Array>
          </mxGeometry>
        </mxCell>
        <mxCell id="NGLzfRE2hstAdica4r9p-223" value="Поле ввода адреса Откуда&amp;nbsp;" style="rounded=1;whiteSpace=wrap;html=1;arcSize=22;" vertex="1" parent="1">
          <mxGeometry x="970" y="-170" width="120" height="40" as="geometry" />
        </mxCell>
        <mxCell id="NGLzfRE2hstAdica4r9p-226" value="Пользователь&amp;nbsp; устанавливает время своего отправления в единицах измерения - минуты" style="whiteSpace=wrap;html=1;rounded=1;arcSize=22;" vertex="1" parent="1">
          <mxGeometry x="1160" y="-70" width="570" height="40" as="geometry" />
        </mxCell>
        <mxCell id="NGLzfRE2hstAdica4r9p-227" value="Пользователь&amp;nbsp; устанавливает время своего отправления в единицах измерения - минуты" style="whiteSpace=wrap;html=1;rounded=1;arcSize=22;" vertex="1" parent="1">
          <mxGeometry x="1160" y="-170" width="570" height="40" as="geometry" />
        </mxCell>
        <mxCell id="NGLzfRE2hstAdica4r9p-252" style="edgeStyle=orthogonalEdgeStyle;rounded=1;orthogonalLoop=1;jettySize=auto;html=1;entryX=0;entryY=0.5;entryDx=0;entryDy=0;" edge="1" parent="1" source="NGLzfRE2hstAdica4r9p-234" target="NGLzfRE2hstAdica4r9p-244">
          <mxGeometry relative="1" as="geometry" />
        </mxCell>
        <mxCell id="NGLzfRE2hstAdica4r9p-253" style="edgeStyle=orthogonalEdgeStyle;rounded=1;orthogonalLoop=1;jettySize=auto;html=1;entryX=0;entryY=0.5;entryDx=0;entryDy=0;" edge="1" parent="1" source="NGLzfRE2hstAdica4r9p-234" target="NGLzfRE2hstAdica4r9p-243">
          <mxGeometry relative="1" as="geometry" />
        </mxCell>
        <mxCell id="NGLzfRE2hstAdica4r9p-254" style="edgeStyle=orthogonalEdgeStyle;rounded=1;orthogonalLoop=1;jettySize=auto;html=1;entryX=0;entryY=0.5;entryDx=0;entryDy=0;" edge="1" parent="1" source="NGLzfRE2hstAdica4r9p-234" target="NGLzfRE2hstAdica4r9p-245">
          <mxGeometry relative="1" as="geometry" />
        </mxCell>
        <mxCell id="NGLzfRE2hstAdica4r9p-255" style="edgeStyle=orthogonalEdgeStyle;rounded=1;orthogonalLoop=1;jettySize=auto;html=1;entryX=0;entryY=0.5;entryDx=0;entryDy=0;" edge="1" parent="1" source="NGLzfRE2hstAdica4r9p-234" target="NGLzfRE2hstAdica4r9p-247">
          <mxGeometry relative="1" as="geometry" />
        </mxCell>
        <mxCell id="NGLzfRE2hstAdica4r9p-256" style="edgeStyle=orthogonalEdgeStyle;rounded=1;orthogonalLoop=1;jettySize=auto;html=1;entryX=0;entryY=0.5;entryDx=0;entryDy=0;" edge="1" parent="1" source="NGLzfRE2hstAdica4r9p-234" target="NGLzfRE2hstAdica4r9p-246">
          <mxGeometry relative="1" as="geometry" />
        </mxCell>
        <mxCell id="NGLzfRE2hstAdica4r9p-257" style="edgeStyle=orthogonalEdgeStyle;rounded=1;orthogonalLoop=1;jettySize=auto;html=1;entryX=0;entryY=0.5;entryDx=0;entryDy=0;" edge="1" parent="1" source="NGLzfRE2hstAdica4r9p-234" target="NGLzfRE2hstAdica4r9p-248">
          <mxGeometry relative="1" as="geometry" />
        </mxCell>
        <mxCell id="NGLzfRE2hstAdica4r9p-234" value="Вид транспорта" style="rounded=1;whiteSpace=wrap;html=1;arcSize=22;" vertex="1" parent="1">
          <mxGeometry x="795" y="370" width="120" height="50" as="geometry" />
        </mxCell>
        <mxCell id="NGLzfRE2hstAdica4r9p-249" style="edgeStyle=orthogonalEdgeStyle;rounded=1;orthogonalLoop=1;jettySize=auto;html=1;entryX=0;entryY=0.5;entryDx=0;entryDy=0;" edge="1" parent="1" source="NGLzfRE2hstAdica4r9p-235" target="NGLzfRE2hstAdica4r9p-241">
          <mxGeometry relative="1" as="geometry" />
        </mxCell>
        <mxCell id="NGLzfRE2hstAdica4r9p-250" style="edgeStyle=orthogonalEdgeStyle;rounded=1;orthogonalLoop=1;jettySize=auto;html=1;entryX=0;entryY=0.5;entryDx=0;entryDy=0;" edge="1" parent="1" source="NGLzfRE2hstAdica4r9p-235" target="NGLzfRE2hstAdica4r9p-240">
          <mxGeometry relative="1" as="geometry" />
        </mxCell>
        <mxCell id="NGLzfRE2hstAdica4r9p-251" style="edgeStyle=orthogonalEdgeStyle;rounded=1;orthogonalLoop=1;jettySize=auto;html=1;entryX=0;entryY=0.5;entryDx=0;entryDy=0;" edge="1" parent="1" source="NGLzfRE2hstAdica4r9p-235" target="NGLzfRE2hstAdica4r9p-242">
          <mxGeometry relative="1" as="geometry" />
        </mxCell>
        <mxCell id="NGLzfRE2hstAdica4r9p-235" value="Режима" style="rounded=1;whiteSpace=wrap;html=1;arcSize=22;" vertex="1" parent="1">
          <mxGeometry x="795" y="95" width="120" height="50" as="geometry" />
        </mxCell>
        <mxCell id="NGLzfRE2hstAdica4r9p-238" style="edgeStyle=orthogonalEdgeStyle;rounded=1;orthogonalLoop=1;jettySize=auto;html=1;" edge="1" parent="1" source="NGLzfRE2hstAdica4r9p-236" target="NGLzfRE2hstAdica4r9p-235">
          <mxGeometry relative="1" as="geometry" />
        </mxCell>
        <mxCell id="NGLzfRE2hstAdica4r9p-239" style="edgeStyle=orthogonalEdgeStyle;rounded=1;orthogonalLoop=1;jettySize=auto;html=1;entryX=0.5;entryY=0;entryDx=0;entryDy=0;" edge="1" parent="1" source="NGLzfRE2hstAdica4r9p-236" target="NGLzfRE2hstAdica4r9p-234">
          <mxGeometry relative="1" as="geometry" />
        </mxCell>
        <mxCell id="NGLzfRE2hstAdica4r9p-236" value="Панель выбора режима и&lt;br&gt;вида транспорта" style="rounded=1;whiteSpace=wrap;html=1;arcSize=22;" vertex="1" parent="1">
          <mxGeometry x="795" y="245" width="120" height="50" as="geometry" />
        </mxCell>
        <mxCell id="NGLzfRE2hstAdica4r9p-268" style="edgeStyle=orthogonalEdgeStyle;rounded=1;orthogonalLoop=1;jettySize=auto;html=1;entryX=0;entryY=0.5;entryDx=0;entryDy=0;" edge="1" parent="1" source="NGLzfRE2hstAdica4r9p-240" target="NGLzfRE2hstAdica4r9p-266">
          <mxGeometry relative="1" as="geometry" />
        </mxCell>
        <mxCell id="NGLzfRE2hstAdica4r9p-240" value="Быстрый" style="rounded=1;whiteSpace=wrap;html=1;arcSize=22;" vertex="1" parent="1">
          <mxGeometry x="970" y="100" width="120" height="40" as="geometry" />
        </mxCell>
        <mxCell id="NGLzfRE2hstAdica4r9p-267" style="edgeStyle=orthogonalEdgeStyle;rounded=1;orthogonalLoop=1;jettySize=auto;html=1;entryX=0;entryY=0.5;entryDx=0;entryDy=0;" edge="1" parent="1" source="NGLzfRE2hstAdica4r9p-241" target="NGLzfRE2hstAdica4r9p-265">
          <mxGeometry relative="1" as="geometry" />
        </mxCell>
        <mxCell id="NGLzfRE2hstAdica4r9p-241" value="Оптимальный" style="rounded=1;whiteSpace=wrap;html=1;arcSize=22;" vertex="1" parent="1">
          <mxGeometry x="970" y="50" width="120" height="40" as="geometry" />
        </mxCell>
        <mxCell id="NGLzfRE2hstAdica4r9p-269" style="edgeStyle=orthogonalEdgeStyle;rounded=1;orthogonalLoop=1;jettySize=auto;html=1;entryX=0;entryY=0.5;entryDx=0;entryDy=0;" edge="1" parent="1" source="NGLzfRE2hstAdica4r9p-242" target="NGLzfRE2hstAdica4r9p-262">
          <mxGeometry relative="1" as="geometry" />
        </mxCell>
        <mxCell id="NGLzfRE2hstAdica4r9p-242" value="Свой" style="rounded=1;whiteSpace=wrap;html=1;arcSize=22;" vertex="1" parent="1">
          <mxGeometry x="970" y="150" width="120" height="40" as="geometry" />
        </mxCell>
        <mxCell id="NGLzfRE2hstAdica4r9p-271" style="edgeStyle=orthogonalEdgeStyle;rounded=1;orthogonalLoop=1;jettySize=auto;html=1;entryX=0;entryY=0.5;entryDx=0;entryDy=0;" edge="1" parent="1" source="NGLzfRE2hstAdica4r9p-243" target="NGLzfRE2hstAdica4r9p-264">
          <mxGeometry relative="1" as="geometry" />
        </mxCell>
        <mxCell id="NGLzfRE2hstAdica4r9p-243" value="Пешком" style="rounded=1;whiteSpace=wrap;html=1;arcSize=22;" vertex="1" parent="1">
          <mxGeometry x="965" y="275" width="120" height="40" as="geometry" />
        </mxCell>
        <mxCell id="NGLzfRE2hstAdica4r9p-270" style="edgeStyle=orthogonalEdgeStyle;rounded=1;orthogonalLoop=1;jettySize=auto;html=1;entryX=0;entryY=0.5;entryDx=0;entryDy=0;" edge="1" parent="1" source="NGLzfRE2hstAdica4r9p-244" target="NGLzfRE2hstAdica4r9p-263">
          <mxGeometry relative="1" as="geometry" />
        </mxCell>
        <mxCell id="NGLzfRE2hstAdica4r9p-244" value="Собственное авто" style="rounded=1;whiteSpace=wrap;html=1;arcSize=22;" vertex="1" parent="1">
          <mxGeometry x="965" y="225" width="120" height="40" as="geometry" />
        </mxCell>
        <mxCell id="NGLzfRE2hstAdica4r9p-245" value="Такси" style="rounded=1;whiteSpace=wrap;html=1;arcSize=22;" vertex="1" parent="1">
          <mxGeometry x="965" y="325" width="120" height="40" as="geometry" />
        </mxCell>
        <mxCell id="NGLzfRE2hstAdica4r9p-275" style="edgeStyle=orthogonalEdgeStyle;rounded=1;orthogonalLoop=1;jettySize=auto;html=1;entryX=0;entryY=0.5;entryDx=0;entryDy=0;" edge="1" parent="1" source="NGLzfRE2hstAdica4r9p-246" target="NGLzfRE2hstAdica4r9p-260">
          <mxGeometry relative="1" as="geometry" />
        </mxCell>
        <mxCell id="NGLzfRE2hstAdica4r9p-246" value="Шеринг самокатов" style="rounded=1;whiteSpace=wrap;html=1;arcSize=22;" vertex="1" parent="1">
          <mxGeometry x="965" y="430" width="120" height="40" as="geometry" />
        </mxCell>
        <mxCell id="NGLzfRE2hstAdica4r9p-274" style="edgeStyle=orthogonalEdgeStyle;rounded=1;orthogonalLoop=1;jettySize=auto;html=1;entryX=0;entryY=0.5;entryDx=0;entryDy=0;" edge="1" parent="1" source="NGLzfRE2hstAdica4r9p-247" target="NGLzfRE2hstAdica4r9p-259">
          <mxGeometry relative="1" as="geometry" />
        </mxCell>
        <mxCell id="NGLzfRE2hstAdica4r9p-247" value="Шеринг велосипедов" style="rounded=1;whiteSpace=wrap;html=1;arcSize=22;" vertex="1" parent="1">
          <mxGeometry x="965" y="375" width="120" height="40" as="geometry" />
        </mxCell>
        <mxCell id="NGLzfRE2hstAdica4r9p-276" style="edgeStyle=orthogonalEdgeStyle;rounded=1;orthogonalLoop=1;jettySize=auto;html=1;entryX=0;entryY=0.5;entryDx=0;entryDy=0;" edge="1" parent="1" source="NGLzfRE2hstAdica4r9p-248" target="NGLzfRE2hstAdica4r9p-261">
          <mxGeometry relative="1" as="geometry" />
        </mxCell>
        <mxCell id="NGLzfRE2hstAdica4r9p-248" value="Каршеринг" style="rounded=1;whiteSpace=wrap;html=1;arcSize=22;" vertex="1" parent="1">
          <mxGeometry x="965" y="480" width="120" height="40" as="geometry" />
        </mxCell>
        <mxCell id="NGLzfRE2hstAdica4r9p-258" value="При выборе вида транспорта &quot;Такси&quot; строится маршрут, рассчитывается время и стоимость поездки" style="whiteSpace=wrap;html=1;rounded=1;arcSize=22;" vertex="1" parent="1">
          <mxGeometry x="1160" y="325" width="570" height="40" as="geometry" />
        </mxCell>
        <mxCell id="NGLzfRE2hstAdica4r9p-259" value="При выборе вида транспорта &quot;Шеринг велосипедов&quot; строится маршрут, рассчитывается время и стоимость поездки" style="whiteSpace=wrap;html=1;rounded=1;arcSize=22;" vertex="1" parent="1">
          <mxGeometry x="1160" y="375" width="570" height="40" as="geometry" />
        </mxCell>
        <mxCell id="NGLzfRE2hstAdica4r9p-260" value="При выборе вида транспорта &quot;Шеринг самокатов&quot; строится маршрут, рассчитывается время и стоимость поездки" style="whiteSpace=wrap;html=1;rounded=1;arcSize=22;" vertex="1" parent="1">
          <mxGeometry x="1160" y="430" width="570" height="40" as="geometry" />
        </mxCell>
        <mxCell id="NGLzfRE2hstAdica4r9p-261" value="При выборе вида транспорта &quot;Каршеринг&quot; строится маршрут, рассчитывается время и стоимость поездки" style="whiteSpace=wrap;html=1;rounded=1;arcSize=22;" vertex="1" parent="1">
          <mxGeometry x="1160" y="480" width="570" height="40" as="geometry" />
        </mxCell>
        <mxCell id="NGLzfRE2hstAdica4r9p-262" value="При выборе режима &quot;Свой&quot;, панель видов транспорта активна - можно переключать" style="whiteSpace=wrap;html=1;rounded=1;arcSize=22;" vertex="1" parent="1">
          <mxGeometry x="1160" y="150" width="570" height="40" as="geometry" />
        </mxCell>
        <mxCell id="NGLzfRE2hstAdica4r9p-263" value="При выборе вида транспорта &quot;Собственное авто&quot; строится маршрут, рассчитывается время и стоимость поездки" style="whiteSpace=wrap;html=1;rounded=1;arcSize=22;" vertex="1" parent="1">
          <mxGeometry x="1160" y="225" width="570" height="40" as="geometry" />
        </mxCell>
        <mxCell id="NGLzfRE2hstAdica4r9p-264" value="При выборе вида транспорта &quot;Пешком&quot; строится маршрут, рассчитывается время и стоимость поездки" style="whiteSpace=wrap;html=1;rounded=1;arcSize=22;" vertex="1" parent="1">
          <mxGeometry x="1160" y="275" width="570" height="40" as="geometry" />
        </mxCell>
        <mxCell id="NGLzfRE2hstAdica4r9p-265" value="При выборе режима &quot;Оптимальный&quot;, система автоматически назначает вид транспорта, построится маршрут, отобразится время и стоимость поездки. Выбрать транспорт в этом режиме нельзя - панель видов транспорта неактивна" style="whiteSpace=wrap;html=1;rounded=1;arcSize=22;" vertex="1" parent="1">
          <mxGeometry x="1160" y="50" width="570" height="40" as="geometry" />
        </mxCell>
        <mxCell id="NGLzfRE2hstAdica4r9p-266" value="При выборе режима &quot;Быстрый&quot;, система автоматически назначает вид транспорта, построится маршрут, отобразится время и стоимость поездки. Выбрать транспорт в этом режиме нельзя - панель видов транспорта неактивна&amp;nbsp;" style="whiteSpace=wrap;html=1;rounded=1;arcSize=22;" vertex="1" parent="1">
          <mxGeometry x="1160" y="100" width="570" height="40" as="geometry" />
        </mxCell>
        <mxCell id="NGLzfRE2hstAdica4r9p-273" style="edgeStyle=orthogonalEdgeStyle;rounded=1;orthogonalLoop=1;jettySize=auto;html=1;entryX=0;entryY=0.5;entryDx=0;entryDy=0;" edge="1" parent="1" source="NGLzfRE2hstAdica4r9p-272" target="NGLzfRE2hstAdica4r9p-258">
          <mxGeometry relative="1" as="geometry" />
        </mxCell>
        <mxCell id="NGLzfRE2hstAdica4r9p-272" value="Такси" style="rounded=1;whiteSpace=wrap;html=1;arcSize=22;" vertex="1" parent="1">
          <mxGeometry x="965" y="325" width="120" height="40" as="geometry" />
        </mxCell>
      </root>
    </mxGraphModel>
  </diagram>
</mxfile>
